<?xml version="1.0" encoding="UTF-8" standalone="no"?>
<!-- Generator: Adobe Illustrator 21.1.0, SVG Export Plug-In . SVG Version: 6.00 Build 0)  -->

<svg
   xmlns:dc="http://purl.org/dc/elements/1.1/"
   xmlns:cc="http://creativecommons.org/ns#"
   xmlns:rdf="http://www.w3.org/1999/02/22-rdf-syntax-ns#"
   xmlns:svg="http://www.w3.org/2000/svg"
   xmlns="http://www.w3.org/2000/svg"
   xmlns:sodipodi="http://sodipodi.sourceforge.net/DTD/sodipodi-0.dtd"
   xmlns:inkscape="http://www.inkscape.org/namespaces/inkscape"
   version="1.1"
   id="Layer_1"
   x="0px"
   y="0px"
   viewBox="0 0 3840 2358"
   style="enable-background:new 0 0 3840 2358;"
   xml:space="preserve"
   sodipodi:docname="homepage_banner.svg"
   inkscape:version="0.92.5 (2060ec1f9f, 2020-04-08)"
   inkscape:export-filename="/home/alexandre/Documentos/Programacao/Projetos/statistics/client/src/main/assets/homepage_banner.png"
   inkscape:export-xdpi="16"
   inkscape:export-ydpi="16"><metadata
   id="metadata153"><rdf:RDF><cc:Work
       rdf:about=""><dc:format>image/svg+xml</dc:format><dc:type
         rdf:resource="http://purl.org/dc/dcmitype/StillImage" /></cc:Work></rdf:RDF></metadata><defs
   id="defs151" /><sodipodi:namedview
   pagecolor="#ffffff"
   bordercolor="#666666"
   borderopacity="1"
   objecttolerance="10"
   gridtolerance="10"
   guidetolerance="10"
   inkscape:pageopacity="0"
   inkscape:pageshadow="2"
   inkscape:window-width="1880"
   inkscape:window-height="1016"
   id="namedview149"
   showgrid="false"
   inkscape:zoom="0.10008482"
   inkscape:cx="1919.9766"
   inkscape:cy="1180.9355"
   inkscape:window-x="1960"
   inkscape:window-y="27"
   inkscape:window-maximized="1"
   inkscape:current-layer="Layer_1" />
<style
   type="text/css"
   id="style2">
	.st0{fill:#E8762B;}
	.st1{fill:#3D9C47;}
	.st2{fill:#DDDA46;}
	.st3{fill:#E02A27;}
	.st4{fill:#314B97;}
</style>
<g
   id="g146"
   style="opacity:1">
	<g
   id="g144"
   style="">
		<g
   id="g6"
   style="">
			<path
   class="st0"
   d="M-482.5-238.3c-4.5-4.5-4.5-11.8,0-16.3l408.9-408.9c4.5-4.5,11.8-4.5,16.3,0l408.9,408.9     c4.5,4.5,4.5,11.8,0,16.3L-57.3,170.6c-4.5,4.5-11.8,4.5-16.3,0L-482.5-238.3z"
   id="path4"
   style="" />
		</g>
		<g
   id="g10"
   style="">
			<path
   class="st1"
   d="M416.1-238.3c-4.5-4.5-4.5-11.8,0-16.3L825-663.4c4.5-4.5,11.8-4.5,16.3,0l408.9,408.9     c4.5,4.5,4.5,11.8,0,16.3L841.3,170.6c-4.5,4.5-11.8,4.5-16.3,0L416.1-238.3z"
   id="path8"
   style="" />
		</g>
		<g
   id="g14"
   style="">
			<path
   class="st2"
   d="M-33.2,211c-4.5-4.5-4.5-11.8,0-16.3l408.9-408.9c4.5-4.5,11.8-4.5,16.3,0l408.9,408.9     c4.5,4.5,4.5,11.8,0,16.3L392,619.9c-4.5,4.5-11.8,4.5-16.3,0L-33.2,211z"
   id="path12"
   style="" />
		</g>
		<g
   id="g18"
   style="">
			<path
   class="st3"
   d="M-482.5,660.3c-4.5-4.5-4.5-11.8,0-16.3l408.9-408.9c4.5-4.5,11.8-4.5,16.3,0l408.9,408.9     c4.5,4.5,4.5,11.8,0,16.3l-408.9,408.9c-4.5,4.5-11.8,4.5-16.3,0L-482.5,660.3z"
   id="path16"
   style="" />
		</g>
		<g
   id="g22"
   style="">
			<path
   class="st2"
   d="M1314.7-238.3c-4.5-4.5-4.5-11.8,0-16.3l408.9-408.9c4.5-4.5,11.8-4.5,16.3,0l408.9,408.9     c4.5,4.5,4.5,11.8,0,16.3l-408.9,408.9c-4.5,4.5-11.8,4.5-16.3,0L1314.7-238.3z"
   id="path20"
   style="" />
		</g>
		<g
   id="g26"
   style="">
			<path
   class="st0"
   d="M865.4,211c-4.5-4.5-4.5-11.8,0-16.3l408.9-408.9c4.5-4.5,11.8-4.5,16.3,0l408.9,408.9     c4.5,4.5,4.5,11.8,0,16.3l-408.9,408.9c-4.5,4.5-11.8,4.5-16.3,0L865.4,211z"
   id="path24"
   style="" />
		</g>
		<g
   id="g30"
   style="">
			<path
   class="st4"
   d="M416.1,660.3c-4.5-4.5-4.5-11.8,0-16.3L825,235.2c4.5-4.5,11.8-4.5,16.3,0l408.9,408.9     c4.5,4.5,4.5,11.8,0,16.3l-408.9,408.9c-4.5,4.5-11.8,4.5-16.3,0L416.1,660.3z"
   id="path28"
   style="" />
		</g>
		<g
   id="g34"
   style="">
			<path
   class="st0"
   d="M-33.2,1109.6c-4.5-4.5-4.5-11.8,0-16.3l408.9-408.9c4.5-4.5,11.8-4.5,16.3,0l408.9,408.9     c4.5,4.5,4.5,11.8,0,16.3L392,1518.5c-4.5,4.5-11.8,4.5-16.3,0L-33.2,1109.6z"
   id="path32"
   style="" />
		</g>
		<g
   id="g38"
   style="">
			<path
   class="st4"
   d="M2213.3-238.3c-4.5-4.5-4.5-11.8,0-16.3l408.9-408.9c4.5-4.5,11.8-4.5,16.3,0l408.9,408.9     c4.5,4.5,4.5,11.8,0,16.3l-408.9,408.9c-4.5,4.5-11.8,4.5-16.3,0L2213.3-238.3z"
   id="path36"
   style="" />
		</g>
		<g
   id="g42"
   style="">
			<path
   class="st3"
   d="M1764,211c-4.5-4.5-4.5-11.8,0-16.3l408.9-408.9c4.5-4.5,11.8-4.5,16.3,0l408.9,408.9     c4.5,4.5,4.5,11.8,0,16.3l-408.9,408.9c-4.5,4.5-11.8,4.5-16.3,0L1764,211z"
   id="path40"
   style="" />
		</g>
		<g
   id="g46"
   style="">
			<path
   class="st1"
   d="M1314.7,660.3c-4.5-4.5-4.5-11.8,0-16.3l408.9-408.9c4.5-4.5,11.8-4.5,16.3,0l408.9,408.9     c4.5,4.5,4.5,11.8,0,16.3l-408.9,408.9c-4.5,4.5-11.8,4.5-16.3,0L1314.7,660.3z"
   id="path44"
   style="" />
		</g>
		<g
   id="g50"
   style="">
			<path
   class="st3"
   d="M865.4,1109.6c-4.5-4.5-4.5-11.8,0-16.3l408.9-408.9c4.5-4.5,11.8-4.5,16.3,0l408.9,408.9     c4.5,4.5,4.5,11.8,0,16.3l-408.9,408.9c-4.5,4.5-11.8,4.5-16.3,0L865.4,1109.6z"
   id="path48"
   style="" />
		</g>
		<g
   id="g54"
   style="">
			<path
   class="st3"
   d="M3111.9-238.3c-4.5-4.5-4.5-11.8,0-16.3l408.9-408.9c4.5-4.5,11.8-4.5,16.3,0l408.9,408.9     c4.5,4.5,4.5,11.8,0,16.3l-408.9,408.9c-4.5,4.5-11.8,4.5-16.3,0L3111.9-238.3z"
   id="path52"
   style="" />
		</g>
		<g
   id="g58"
   style="">
			<path
   class="st1"
   d="M2662.6,211c-4.5-4.5-4.5-11.8,0-16.3l408.9-408.9c4.5-4.5,11.8-4.5,16.3,0l408.9,408.9     c4.5,4.5,4.5,11.8,0,16.3l-408.9,408.9c-4.5,4.5-11.8,4.5-16.3,0L2662.6,211z"
   id="path56"
   style="" />
		</g>
		<g
   id="g62"
   style="">
			<path
   class="st0"
   d="M2213.3,660.3c-4.5-4.5-4.5-11.8,0-16.3l408.9-408.9c4.5-4.5,11.8-4.5,16.3,0l408.9,408.9     c4.5,4.5,4.5,11.8,0,16.3l-408.9,408.9c-4.5,4.5-11.8,4.5-16.3,0L2213.3,660.3z"
   id="path60"
   style="" />
		</g>
		<g
   id="g66"
   style="">
			<path
   class="st2"
   d="M1764,1109.6c-4.5-4.5-4.5-11.8,0-16.3l408.9-408.9c4.5-4.5,11.8-4.5,16.3,0l408.9,408.9     c4.5,4.5,4.5,11.8,0,16.3l-408.9,408.9c-4.5,4.5-11.8,4.5-16.3,0L1764,1109.6z"
   id="path64"
   style="" />
		</g>
		<g
   id="g70"
   style="">
			<path
   class="st4"
   d="M3561.2,211c-4.5-4.5-4.5-11.8,0-16.3l408.9-408.9c4.5-4.5,11.8-4.5,16.3,0l408.9,408.9     c4.5,4.5,4.5,11.8,0,16.3l-408.9,408.9c-4.5,4.5-11.8,4.5-16.3,0L3561.2,211z"
   id="path68"
   style="" />
		</g>
		<g
   id="g74"
   style="">
			<path
   class="st2"
   d="M3111.9,660.3c-4.5-4.5-4.5-11.8,0-16.3l408.9-408.9c4.5-4.5,11.8-4.5,16.3,0l408.9,408.9     c4.5,4.5,4.5,11.8,0,16.3l-408.9,408.9c-4.5,4.5-11.8,4.5-16.3,0L3111.9,660.3z"
   id="path72"
   style="" />
		</g>
		<g
   id="g78"
   style="">
			<path
   class="st4"
   d="M2662.6,1109.6c-4.5-4.5-4.5-11.8,0-16.3l408.9-408.9c4.5-4.5,11.8-4.5,16.3,0l408.9,408.9     c4.5,4.5,4.5,11.8,0,16.3l-408.9,408.9c-4.5,4.5-11.8,4.5-16.3,0L2662.6,1109.6z"
   id="path76"
   style="" />
		</g>
		<g
   id="g82"
   style="">
			<path
   class="st1"
   d="M3561.2,1109.6c-4.5-4.5-4.5-11.8,0-16.3l408.9-408.9c4.5-4.5,11.8-4.5,16.3,0l408.9,408.9     c4.5,4.5,4.5,11.8,0,16.3l-408.9,408.9c-4.5,4.5-11.8,4.5-16.3,0L3561.2,1109.6z"
   id="path80"
   style="" />
		</g>
		<g
   id="g86"
   style="">
			<path
   class="st1"
   d="M-482.5,1558.9c-4.5-4.5-4.5-11.8,0-16.3l408.9-408.9c4.5-4.5,11.8-4.5,16.3,0l408.9,408.9     c4.5,4.5,4.5,11.8,0,16.3l-408.9,408.9c-4.5,4.5-11.8,4.5-16.3,0L-482.5,1558.9z"
   id="path84"
   style="" />
		</g>
		<g
   id="g90"
   style="">
			<path
   class="st2"
   d="M416.1,1558.9c-4.5-4.5-4.5-11.8,0-16.3L825,1133.7c4.5-4.5,11.8-4.5,16.3,0l408.9,408.9     c4.5,4.5,4.5,11.8,0,16.3l-408.9,408.9c-4.5,4.5-11.8,4.5-16.3,0L416.1,1558.9z"
   id="path88"
   style="" />
		</g>
		<g
   id="g94"
   style="">
			<path
   class="st3"
   d="M-33.2,2008.2c-4.5-4.5-4.5-11.8,0-16.3L375.7,1583c4.5-4.5,11.8-4.5,16.3,0l408.9,408.9     c4.5,4.5,4.5,11.8,0,16.3L392,2417.1c-4.5,4.5-11.8,4.5-16.3,0L-33.2,2008.2z"
   id="path92"
   style="" />
		</g>
		<g
   id="g98"
   style="">
			<path
   class="st4"
   d="M-482.5,2457.5c-4.5-4.5-4.5-11.8,0-16.3l408.9-408.9c4.5-4.5,11.8-4.5,16.3,0l408.9,408.9     c4.5,4.5,4.5,11.8,0,16.3l-408.9,408.9c-4.5,4.5-11.8,4.5-16.3,0L-482.5,2457.5z"
   id="path96"
   style="" />
		</g>
		<g
   id="g102"
   style="">
			<path
   class="st4"
   d="M1314.7,1558.9c-4.5-4.5-4.5-11.8,0-16.3l408.9-408.9c4.5-4.5,11.8-4.5,16.3,0l408.9,408.9     c4.5,4.5,4.5,11.8,0,16.3l-408.9,408.9c-4.5,4.5-11.8,4.5-16.3,0L1314.7,1558.9z"
   id="path100"
   style="" />
		</g>
		<g
   id="g106"
   style="">
			<path
   class="st0"
   d="M865.4,2008.2c-4.5-4.5-4.5-11.8,0-16.3l408.9-408.9c4.5-4.5,11.8-4.5,16.3,0l408.9,408.9     c4.5,4.5,4.5,11.8,0,16.3l-408.9,408.9c-4.5,4.5-11.8,4.5-16.3,0L865.4,2008.2z"
   id="path104"
   style="" />
		</g>
		<g
   id="g110"
   style="">
			<path
   class="st1"
   d="M416.1,2457.5c-4.5-4.5-4.5-11.8,0-16.3L825,2032.3c4.5-4.5,11.8-4.5,16.3,0l408.9,408.9     c4.5,4.5,4.5,11.8,0,16.3l-408.9,408.9c-4.5,4.5-11.8,4.5-16.3,0L416.1,2457.5z"
   id="path108"
   style="" />
		</g>
		<g
   id="g114"
   style="">
			<path
   class="st3"
   d="M2213.3,1558.9c-4.5-4.5-4.5-11.8,0-16.3l408.9-408.9c4.5-4.5,11.8-4.5,16.3,0l408.9,408.9     c4.5,4.5,4.5,11.8,0,16.3l-408.9,408.9c-4.5,4.5-11.8,4.5-16.3,0L2213.3,1558.9z"
   id="path112"
   style="" />
		</g>
		<g
   id="g118"
   style="">
			<path
   class="st1"
   d="M1764,2008.2c-4.5-4.5-4.5-11.8,0-16.3l408.9-408.9c4.5-4.5,11.8-4.5,16.3,0l408.9,408.9     c4.5,4.5,4.5,11.8,0,16.3l-408.9,408.9c-4.5,4.5-11.8,4.5-16.3,0L1764,2008.2z"
   id="path116"
   style="" />
		</g>
		<g
   id="g122"
   style="">
			<path
   class="st2"
   d="M1314.7,2457.5c-4.5-4.5-4.5-11.8,0-16.3l408.9-408.9c4.5-4.5,11.8-4.5,16.3,0l408.9,408.9     c4.5,4.5,4.5,11.8,0,16.3l-408.9,408.9c-4.5,4.5-11.8,4.5-16.3,0L1314.7,2457.5z"
   id="path120"
   style="" />
		</g>
		<g
   id="g126"
   style="">
			<path
   class="st0"
   d="M3111.9,1558.9c-4.5-4.5-4.5-11.8,0-16.3l408.9-408.9c4.5-4.5,11.8-4.5,16.3,0l408.9,408.9     c4.5,4.5,4.5,11.8,0,16.3l-408.9,408.9c-4.5,4.5-11.8,4.5-16.3,0L3111.9,1558.9z"
   id="path124"
   style="" />
		</g>
		<g
   id="g130"
   style="">
			<path
   class="st2"
   d="M2662.6,2008.2c-4.5-4.5-4.5-11.8,0-16.3l408.9-408.9c4.5-4.5,11.8-4.5,16.3,0l408.9,408.9     c4.5,4.5,4.5,11.8,0,16.3l-408.9,408.9c-4.5,4.5-11.8,4.5-16.3,0L2662.6,2008.2z"
   id="path128"
   style="" />
		</g>
		<g
   id="g134"
   style="">
			<path
   class="st0"
   d="M2213.3,2457.5c-4.5-4.5-4.5-11.8,0-16.3l408.9-408.9c4.5-4.5,11.8-4.5,16.3,0l408.9,408.9     c4.5,4.5,4.5,11.8,0,16.3l-408.9,408.9c-4.5,4.5-11.8,4.5-16.3,0L2213.3,2457.5z"
   id="path132"
   style="" />
		</g>
		<g
   id="g138"
   style="">
			<path
   class="st4"
   d="M3561.2,2008.2c-4.5-4.5-4.5-11.8,0-16.3l408.9-408.9c4.5-4.5,11.8-4.5,16.3,0l408.9,408.9     c4.5,4.5,4.5,11.8,0,16.3l-408.9,408.9c-4.5,4.5-11.8,4.5-16.3,0L3561.2,2008.2z"
   id="path136"
   style="" />
		</g>
		<g
   id="g142"
   style="">
			<path
   class="st3"
   d="M3111.9,2457.5c-4.5-4.5-4.5-11.8,0-16.3l408.9-408.9c4.5-4.5,11.8-4.5,16.3,0l408.9,408.9     c4.5,4.5,4.5,11.8,0,16.3l-408.9,408.9c-4.5,4.5-11.8,4.5-16.3,0L3111.9,2457.5z"
   id="path140"
   style="" />
		</g>
	</g>
</g>
</svg>